<svg width="25" height="25" viewBox="0 0 25 25" fill="none" xmlns="http://www.w3.org/2000/svg">
<g clip-path="url(#clip0_3063_2748)">
<path d="M19.8777 14.8522L19.4832 16.6001C19.3509 17.1817 19.0683 17.6945 18.678 18.0605C18.2877 18.4266 17.811 18.626 17.3203 18.6285H8.05406C7.56191 18.6283 7.08332 18.4299 6.69131 18.0636C6.2993 17.6974 6.01536 17.1835 5.88281 16.6001L2.59406 2.01315H0.914063C0.715151 2.01315 0.524385 1.91589 0.383732 1.74279C0.24308 1.56967 0.164062 1.33489 0.164062 1.09007C0.164062 0.845254 0.24308 0.610466 0.383732 0.437355C0.524385 0.264245 0.715151 0.166992 0.914063 0.166992H3.16406C3.32804 0.166953 3.48749 0.233052 3.61804 0.355169C3.74858 0.477285 3.84302 0.648692 3.88688 0.843146L4.77563 4.78238H12.3313C12.2219 5.37612 12.1641 5.99402 12.1641 6.62853H5.19281L7.33125 16.1062C7.37511 16.3007 7.46954 16.472 7.60009 16.5942C7.73066 16.7163 7.89011 16.7824 8.05406 16.7824H17.3203C17.4843 16.7824 17.6437 16.7163 17.7743 16.5942C17.9049 16.472 17.9993 16.3007 18.0432 16.1062L18.3138 14.9038C18.5116 14.9252 18.7118 14.9362 18.9141 14.9362C19.2412 14.9362 19.563 14.9076 19.8777 14.8522Z" fill="#0065EA"/>
<path d="M8.91124 23.3464C9.07609 23.0428 9.16406 22.6859 9.16406 22.3208C9.16406 21.8312 9.00604 21.3616 8.72471 21.0153C8.44339 20.6691 8.06186 20.4746 7.66406 20.4746C7.36739 20.4746 7.07738 20.5829 6.83071 20.7858C6.58403 20.9886 6.39178 21.2769 6.27824 21.6142C6.16471 21.9516 6.13501 22.3228 6.19288 22.6809C6.25076 23.039 6.39362 23.368 6.6034 23.6262C6.81318 23.8844 7.08046 24.0602 7.37143 24.1315C7.6624 24.2026 7.96399 24.1661 8.23811 24.0264C8.51216 23.8867 8.74646 23.65 8.91124 23.3464Z" fill="#0065EA"/>
<path d="M16.5807 20.7858C16.8274 20.5829 17.1174 20.4746 17.4141 20.4746C17.8119 20.4746 18.1934 20.6691 18.4747 21.0153C18.756 21.3616 18.9141 21.8312 18.9141 22.3208C18.9141 22.6859 18.8261 23.0428 18.6612 23.3464C18.4965 23.65 18.2622 23.8867 17.9881 24.0264C17.714 24.1661 17.4124 24.2026 17.1214 24.1315C16.8305 24.0602 16.5632 23.8844 16.3534 23.6262C16.1436 23.368 16.0008 23.039 15.9429 22.6809C15.885 22.3228 15.9147 21.9516 16.0282 21.6142C16.1418 21.2769 16.3341 20.9886 16.5807 20.7858Z" fill="#0065EA"/>
<path fill-rule="evenodd" clip-rule="evenodd" d="M18.9141 13.0901C21.8136 13.0901 24.1641 10.1971 24.1641 6.62853C24.1641 3.05992 21.8136 0.166992 18.9141 0.166992C16.0146 0.166992 13.6641 3.05992 13.6641 6.62853C13.6641 10.1971 16.0146 13.0901 18.9141 13.0901ZM18.3141 9.58238C18.3141 9.99019 18.5827 10.3208 18.9141 10.3208C19.2454 10.3208 19.5141 9.99019 19.5141 9.58238V7.36699H21.3141C21.6454 7.36699 21.9141 7.03637 21.9141 6.62853C21.9141 6.22069 21.6454 5.89007 21.3141 5.89007H19.5141V3.67468C19.5141 3.26684 19.2454 2.93622 18.9141 2.93622C18.5827 2.93622 18.3141 3.26684 18.3141 3.67468V5.89007H16.5141C16.1827 5.89007 15.9141 6.22069 15.9141 6.62853C15.9141 7.03637 16.1827 7.36699 16.5141 7.36699H18.3141V9.58238Z" fill="#0065EA"/>
</g>
<defs>
<clipPath id="clip0_3063_2748">
<rect width="24" height="24" fill="white" transform="translate(0.164062 0.166992)"/>
</clipPath>
</defs>
</svg>
