<svg width="19" height="19" viewBox="0 0 19 19" fill="none" xmlns="http://www.w3.org/2000/svg">
<mask id="mask0_3026_1826" style="mask-type:luminance" maskUnits="userSpaceOnUse" x="0" y="0" width="19" height="19">
<rect x="0.429688" y="0.5" width="18" height="18" fill="white"/>
</mask>
<g mask="url(#mask0_3026_1826)">
<path fill-rule="evenodd" clip-rule="evenodd" d="M9.42969 2.375C5.49466 2.375 2.3047 5.56496 2.30469 9.49998C2.30468 13.435 5.49463 16.625 9.42965 16.625C13.3647 16.625 16.5547 13.4351 16.5547 9.50003C16.5547 5.56501 13.3647 2.37503 9.42972 2.375H9.42969Z" fill="#039BE5"/>
<path fill-rule="evenodd" clip-rule="evenodd" d="M10.3947 11.3889H12.2386L12.5281 9.51578H10.3943V8.49203C10.3943 7.71391 10.6486 7.02391 11.3764 7.02391H12.5461V5.38928C12.3406 5.36153 11.9059 5.30078 11.0847 5.30078C9.36981 5.30078 8.36444 6.20641 8.36444 8.26966V9.51578H6.60156V11.3889H8.36444V16.5373C8.71356 16.5898 9.06719 16.6254 9.43019 16.6254C9.75831 16.6254 10.0786 16.5954 10.3947 16.5527V11.3889Z" fill="white"/>
</g>
</svg>
