<svg width="18" height="19" viewBox="0 0 18 19" fill="none" xmlns="http://www.w3.org/2000/svg">
<mask id="mask0_3025_1793" style="mask-type:luminance" maskUnits="userSpaceOnUse" x="0" y="0" width="18" height="19">
<rect x="0.5" y="0.5" width="16.8632" height="18" fill="white"/>
</mask>
<g mask="url(#mask0_3025_1793)">
<path fill-rule="evenodd" clip-rule="evenodd" d="M15.8183 8.03113H15.2523V8H8.92866V11H12.8996C12.3203 12.7464 10.7636 14 8.92866 14C6.60049 14 4.71287 11.9851 4.71287 9.5C4.71287 7.01488 6.60049 5 8.92866 5C10.0033 5 10.981 5.43275 11.7255 6.13963L13.7129 4.01825C12.458 2.76987 10.7794 2 8.92866 2C5.04838 2 1.90234 5.35813 1.90234 9.5C1.90234 13.6419 5.04838 17 8.92866 17C12.8089 17 15.955 13.6419 15.955 9.5C15.955 8.99713 15.9065 8.50625 15.8183 8.03113Z" fill="#FFC107"/>
<path fill-rule="evenodd" clip-rule="evenodd" d="M2.71484 6.00912L5.02334 7.81625C5.64798 6.1655 7.16075 5 8.93103 5C10.0057 5 10.9834 5.43275 11.7279 6.13962L13.7152 4.01825C12.4603 2.76987 10.7818 2 8.93103 2C6.23222 2 3.89175 3.62637 2.71484 6.00912Z" fill="#FF3D00"/>
<path fill-rule="evenodd" clip-rule="evenodd" d="M8.92705 16.9993C10.742 16.9993 12.391 16.2579 13.6378 15.0523L11.4632 13.088C10.7578 13.6584 9.88088 13.9993 8.92705 13.9993C7.09951 13.9993 5.54775 12.7554 4.96316 11.0195L2.67188 12.9039C3.83473 15.3328 6.19627 16.9993 8.92705 16.9993Z" fill="#4CAF50"/>
<path fill-rule="evenodd" clip-rule="evenodd" d="M15.8193 8.03113H15.2534V8H8.92969V11H12.9006C12.6224 11.8389 12.1168 12.5623 11.4648 13.0891C11.4651 13.0888 11.4655 13.0887 11.4658 13.0884L13.6405 15.0526C13.4866 15.2019 15.956 13.25 15.956 9.5C15.956 8.99713 15.9075 8.50625 15.8193 8.03113Z" fill="#1976D2"/>
</g>
</svg>
