<svg width="20" height="22" viewBox="0 0 20 22" fill="none" xmlns="http://www.w3.org/2000/svg">
<g clip-path="url(#clip0_4128_6721)">
<rect width="10" height="10" fill="#4B5563"/>
<rect width="10" height="10" transform="translate(10)" fill="#4B5563"/>
</g>
<g clip-path="url(#clip1_4128_6721)">
<rect width="10" height="10" transform="translate(0 12)" fill="#4B5563"/>
<rect width="10" height="10" transform="translate(10 12)" fill="#4B5563"/>
</g>
<defs>
<clipPath id="clip0_4128_6721">
<path d="M0 1C0 0.447715 0.447715 0 1 0H19C19.5523 0 20 0.447715 20 1V9C20 9.55228 19.5523 10 19 10H1C0.447715 10 0 9.55229 0 9V1Z" fill="white"/>
</clipPath>
<clipPath id="clip1_4128_6721">
<path d="M0 13C0 12.4477 0.447715 12 1 12H19C19.5523 12 20 12.4477 20 13V21C20 21.5523 19.5523 22 19 22H1C0.447715 22 0 21.5523 0 21V13Z" fill="white"/>
</clipPath>
</defs>
</svg>
