<svg width="120" height="120" viewBox="0 0 120 120" fill="none" xmlns="http://www.w3.org/2000/svg">
<rect width="120" height="120" rx="60" fill="#E1F8E9"/>
<path opacity="0.4" d="M60.0008 73.3746C62.2513 73.3746 64.0758 71.5502 64.0758 69.2996C64.0758 67.049 62.2513 65.2246 60.0008 65.2246C57.7502 65.2246 55.9258 67.049 55.9258 69.2996C55.9258 71.5502 57.7502 73.3746 60.0008 73.3746Z" fill="#1EC756"/>
<path d="M71.625 53.5996H48.375C38.125 53.5996 35 56.7246 35 66.9746V71.6246C35 81.8746 38.125 84.9996 48.375 84.9996H71.625C81.875 84.9996 85 81.8746 85 71.6246V66.9746C85 56.7246 81.875 53.5996 71.625 53.5996ZM60 76.8496C55.825 76.8496 52.45 73.4496 52.45 69.2996C52.45 65.1496 55.825 61.7496 60 61.7496C64.175 61.7496 67.55 65.1496 67.55 69.2996C67.55 73.4496 64.175 76.8496 60 76.8496Z" fill="#1EC756"/>
<path opacity="0.4" d="M47.8008 53.625V50.7C47.8008 43.375 49.8758 38.5 60.0008 38.5C70.8258 38.5 72.2008 43.775 72.2008 48.375C72.2008 49.35 72.9758 50.125 73.9508 50.125C74.9258 50.125 75.7008 49.35 75.7008 48.375C75.7008 39.5 70.4258 35 60.0008 35C45.9258 35 44.3008 43.95 44.3008 50.7V53.825C45.3508 53.7 46.5258 53.625 47.8008 53.625Z" fill="#1EC756"/>
</svg>
