<svg width="65" height="64" viewBox="0 0 65 64" fill="none" xmlns="http://www.w3.org/2000/svg">
<g clip-path="url(#clip0_3194_3224)">
<path d="M60.3594 28.9375L58.7344 22.3125C58.9427 22.2708 59.1198 22.1562 59.2656 21.9688C59.4115 21.7812 59.4844 21.5625 59.4844 21.3125V20.25C59.4844 19.0833 59.0781 18.0938 58.2656 17.2812C57.4531 16.4688 56.4635 16.0625 55.2969 16.0625H47.7344V13.8125C47.7344 13.2708 47.5365 12.7917 47.1406 12.375C46.7448 11.9583 46.2552 11.75 45.6719 11.75H7.23438C6.65104 11.75 6.15104 11.9583 5.73438 12.375C5.31771 12.7917 5.10938 13.2708 5.10938 13.8125V32C5.10938 32.2917 5.21354 32.5312 5.42188 32.7188C5.63021 32.9062 5.85938 33 6.10938 33C6.40104 33 6.64062 32.9062 6.82812 32.7188C7.01562 32.5312 7.10938 32.2917 7.10938 32V13.8125C7.10938 13.8125 7.11979 13.8021 7.14062 13.7812C7.16146 13.7604 7.19271 13.75 7.23438 13.75H45.6719C45.7135 13.75 45.7344 13.7604 45.7344 13.7812C45.7344 13.8021 45.7344 13.8125 45.7344 13.8125V32C45.7344 32.2917 45.8385 32.5312 46.0469 32.7188C46.2552 32.9062 46.4844 33 46.7344 33C47.026 33 47.2656 32.9062 47.4531 32.7188C47.6406 32.5312 47.7344 32.2917 47.7344 32V30.875H59.6094C60.3177 30.875 60.9531 31.0833 61.5156 31.5C62.0781 31.9167 62.4635 32.4583 62.6719 33.125H59.6094C59.3177 33.125 59.0781 33.2292 58.8906 33.4375C58.7031 33.6458 58.6094 33.875 58.6094 34.125V36.25C58.6094 37.125 58.9115 37.875 59.5156 38.5C60.1198 39.125 60.8594 39.4375 61.7344 39.4375H62.8594V43.8125H60.2344C59.8177 42.5625 59.0573 41.5417 57.9531 40.75C56.849 39.9583 55.6094 39.5625 54.2344 39.5625C52.8594 39.5625 51.6198 39.9583 50.5156 40.75C49.4115 41.5417 48.651 42.5625 48.2344 43.8125H47.7344V36.25C47.7344 36 47.6406 35.7708 47.4531 35.5625C47.2656 35.3542 47.026 35.25 46.7344 35.25C46.4844 35.25 46.2552 35.3542 46.0469 35.5625C45.8385 35.7708 45.7344 36 45.7344 36.25V43.8125H24.9844C24.526 42.5625 23.7552 41.5417 22.6719 40.75C21.5885 39.9583 20.3594 39.5625 18.9844 39.5625C17.5677 39.5625 16.3177 39.9583 15.2344 40.75C14.151 41.5417 13.401 42.5625 12.9844 43.8125H7.23438C7.19271 43.8125 7.16146 43.8125 7.14062 43.8125C7.11979 43.8125 7.10938 43.7917 7.10938 43.75V41.5625H11.4844C11.776 41.5625 12.0156 41.4583 12.2031 41.25C12.3906 41.0417 12.4844 40.8125 12.4844 40.5625C12.4844 40.2708 12.3906 40.0312 12.2031 39.8438C12.0156 39.6562 11.776 39.5625 11.4844 39.5625H1.85938C1.56771 39.5625 1.32812 39.6562 1.14062 39.8438C0.953125 40.0312 0.859375 40.2708 0.859375 40.5625C0.859375 40.8125 0.953125 41.0417 1.14062 41.25C1.32812 41.4583 1.56771 41.5625 1.85938 41.5625H5.10938V43.75C5.10938 44.3333 5.31771 44.8229 5.73438 45.2188C6.15104 45.6146 6.65104 45.8125 7.23438 45.8125H12.6094C12.6094 45.8542 12.6094 45.875 12.6094 45.875C12.6094 47.625 13.2344 49.125 14.4844 50.375C15.7344 51.625 17.2344 52.25 18.9844 52.25C20.7344 52.25 22.224 51.625 23.4531 50.375C24.6823 49.125 25.2969 47.625 25.2969 45.875C25.2969 45.875 25.2969 45.8542 25.2969 45.8125H47.9219C47.9219 45.8542 47.9115 45.875 47.8906 45.875C47.8698 45.875 47.8594 45.875 47.8594 45.875C47.8594 47.625 48.4844 49.125 49.7344 50.375C50.9844 51.625 52.4844 52.25 54.2344 52.25C55.9844 52.25 57.4844 51.625 58.7344 50.375C59.9844 49.125 60.6094 47.625 60.6094 45.875C60.6094 45.875 60.6094 45.8542 60.6094 45.8125H63.8594C64.151 45.8125 64.3906 45.7188 64.5781 45.5312C64.7656 45.3438 64.8594 45.1042 64.8594 44.8125V34.125C64.8594 32.8333 64.4323 31.6875 63.5781 30.6875C62.724 29.6875 61.651 29.1042 60.3594 28.9375ZM47.7344 18.0625H55.2969C55.9219 18.0625 56.4427 18.2708 56.8594 18.6875C57.276 19.1042 57.4844 19.625 57.4844 20.25V20.3125H47.7344V18.0625ZM47.7344 28.875V22.3125H56.6719L58.2969 28.875H47.7344ZM18.9844 50.25C17.776 50.25 16.7448 49.8229 15.8906 48.9688C15.0365 48.1146 14.6094 47.0833 14.6094 45.875C14.6094 44.7083 15.0365 43.6979 15.8906 42.8438C16.7448 41.9896 17.776 41.5625 18.9844 41.5625C20.151 41.5625 21.1615 41.9896 22.0156 42.8438C22.8698 43.6979 23.2969 44.7083 23.2969 45.875C23.2969 47.0833 22.8698 48.1146 22.0156 48.9688C21.1615 49.8229 20.151 50.25 18.9844 50.25ZM54.2344 50.25C53.026 50.25 52.0052 49.8229 51.1719 48.9688C50.3385 48.1146 49.9219 47.0833 49.9219 45.875C49.9219 44.7083 50.3385 43.6979 51.1719 42.8438C52.0052 41.9896 53.026 41.5625 54.2344 41.5625C55.4427 41.5625 56.474 41.9896 57.3281 42.8438C58.1823 43.6979 58.6094 44.7083 58.6094 45.875C58.6094 47.0833 58.1823 48.1146 57.3281 48.9688C56.474 49.8229 55.4427 50.25 54.2344 50.25ZM62.8594 37.4375H61.7344C61.401 37.4375 61.1302 37.3229 60.9219 37.0938C60.7135 36.8646 60.6094 36.5833 60.6094 36.25V35.125H62.8594V37.4375ZM18.9844 43.8125C18.401 43.8125 17.9115 44.0208 17.5156 44.4375C17.1198 44.8542 16.9219 45.3333 16.9219 45.875C16.9219 46.4583 17.1198 46.9479 17.5156 47.3438C17.9115 47.7396 18.401 47.9375 18.9844 47.9375C19.526 47.9375 20.0052 47.7396 20.4219 47.3438C20.8385 46.9479 21.0469 46.4583 21.0469 45.875C21.0469 45.3333 20.8385 44.8542 20.4219 44.4375C20.0052 44.0208 19.526 43.8125 18.9844 43.8125ZM54.2344 43.8125C53.651 43.8125 53.1615 44.0208 52.7656 44.4375C52.3698 44.8542 52.1719 45.3333 52.1719 45.875C52.1719 46.4583 52.3698 46.9479 52.7656 47.3438C53.1615 47.7396 53.651 47.9375 54.2344 47.9375C54.8177 47.9375 55.3073 47.7396 55.7031 47.3438C56.099 46.9479 56.2969 46.4583 56.2969 45.875C56.2969 45.3333 56.099 44.8542 55.7031 44.4375C55.3073 44.0208 54.8177 43.8125 54.2344 43.8125ZM42.4844 39.5625H27.4844C27.2344 39.5625 27.0052 39.6562 26.7969 39.8438C26.5885 40.0312 26.4844 40.2708 26.4844 40.5625C26.4844 40.8125 26.5885 41.0417 26.7969 41.25C27.0052 41.4583 27.2344 41.5625 27.4844 41.5625H42.4844C42.776 41.5625 43.0156 41.4583 43.2031 41.25C43.3906 41.0417 43.4844 40.8125 43.4844 40.5625C43.4844 40.2708 43.3906 40.0312 43.2031 39.8438C43.0156 39.6562 42.776 39.5625 42.4844 39.5625ZM16.7969 35.25H3.98438C3.73438 35.25 3.50521 35.3542 3.29688 35.5625C3.08854 35.7708 2.98438 36 2.98438 36.25C2.98438 36.5417 3.08854 36.7812 3.29688 36.9688C3.50521 37.1562 3.73438 37.25 3.98438 37.25H16.7969C17.0885 37.25 17.3281 37.1562 17.5156 36.9688C17.7031 36.7812 17.7969 36.5417 17.7969 36.25C17.7969 36 17.7031 35.7708 17.5156 35.5625C17.3281 35.3542 17.0885 35.25 16.7969 35.25ZM35.7344 21.6875C35.526 21.4792 35.2865 21.375 35.0156 21.375C34.7448 21.375 34.5052 21.4792 34.2969 21.6875L25.3594 30.5625L20.7344 25.9375C20.526 25.7292 20.2865 25.625 20.0156 25.625C19.7448 25.625 19.5052 25.7292 19.2969 25.9375C19.1302 26.1458 19.0469 26.3854 19.0469 26.6562C19.0469 26.9271 19.1302 27.1667 19.2969 27.375L24.6719 32.6875C24.7552 32.8125 24.8594 32.8958 24.9844 32.9375C25.1094 32.9792 25.2344 33 25.3594 33C25.4844 33 25.6094 32.9792 25.7344 32.9375C25.8594 32.8958 25.9844 32.8125 26.1094 32.6875L35.7344 23.0625C35.901 22.8958 35.9844 22.6667 35.9844 22.375C35.9844 22.0833 35.901 21.8542 35.7344 21.6875Z" fill="#0568EA"/>
</g>
<defs>
<clipPath id="clip0_3194_3224">
<rect width="64" height="64" fill="white" transform="matrix(1 0 0 -1 0.859375 64)"/>
</clipPath>
</defs>
</svg>
