<svg width="65" height="64" viewBox="0 0 65 64" fill="none" xmlns="http://www.w3.org/2000/svg">
<g clip-path="url(#clip0_3194_3231)">
<path d="M47.75 48.3125C47.75 48.0208 47.8438 47.7812 48.0312 47.5938C48.2188 47.4062 48.4583 47.3125 48.75 47.3125C49 47.3125 49.2292 47.4062 49.4375 47.5938C49.6458 47.7812 49.75 48.0208 49.75 48.3125V63C49.75 63.2917 49.6458 63.5312 49.4375 63.7188C49.2292 63.9062 49 64 48.75 64H6.125C5.875 64 5.64583 63.9062 5.4375 63.7188C5.22917 63.5312 5.125 63.2917 5.125 63V37.75C5.125 37.4583 5.22917 37.2188 5.4375 37.0312C5.64583 36.8438 5.875 36.75 6.125 36.75C6.41667 36.75 6.65625 36.8438 6.84375 37.0312C7.03125 37.2188 7.125 37.4583 7.125 37.75V62H47.75V48.3125ZM15 60.375C15 60.6667 14.8958 60.9167 14.6875 61.125C14.4792 61.3333 14.25 61.4375 14 61.4375C13.7083 61.4375 13.4688 61.3333 13.2812 61.125C13.0938 60.9167 13 60.6667 13 60.375V47.625C13 46.6667 13.1771 45.7708 13.5312 44.9375C13.8854 44.1042 14.375 43.375 15 42.75C15.625 42.125 16.3646 41.6354 17.2188 41.2812C18.0729 40.9271 18.9583 40.75 19.875 40.75C20.8333 40.75 21.7292 40.9271 22.5625 41.2812C23.3958 41.6354 24.125 42.125 24.75 42.75C25.375 43.375 25.875 44.1042 26.25 44.9375C26.625 45.7708 26.8125 46.6667 26.8125 47.625V60.375C26.8125 60.6667 26.7083 60.9167 26.5 61.125C26.2917 61.3333 26.0625 61.4375 25.8125 61.4375C25.5208 61.4375 25.2812 61.3333 25.0938 61.125C24.9062 60.9167 24.8125 60.6667 24.8125 60.375V47.625C24.8125 46.9583 24.6771 46.3229 24.4062 45.7188C24.1354 45.1146 23.7917 44.6042 23.375 44.1875C22.9167 43.7292 22.3854 43.375 21.7812 43.125C21.1771 42.875 20.5417 42.75 19.875 42.75C19.2083 42.75 18.5729 42.875 17.9688 43.125C17.3646 43.375 16.8542 43.7292 16.4375 44.1875C15.9792 44.6042 15.625 45.1146 15.375 45.7188C15.125 46.3229 15 46.9583 15 47.625V60.375ZM33.25 52.4375H42.4375V45.4375H33.25V52.4375ZM43.4375 54.4375H32.25C31.9583 54.4375 31.7188 54.3333 31.5312 54.125C31.3438 53.9167 31.25 53.6875 31.25 53.4375V44.4375C31.25 44.1458 31.3438 43.9062 31.5312 43.7188C31.7188 43.5312 31.9583 43.4375 32.25 43.4375H43.4375C43.6875 43.4375 43.9167 43.5312 44.125 43.7188C44.3333 43.9062 44.4375 44.1458 44.4375 44.4375V53.4375C44.4375 53.6875 44.3333 53.9167 44.125 54.125C43.9167 54.3333 43.6875 54.4375 43.4375 54.4375ZM21.5625 55C21.8542 55 22.0938 54.9062 22.2812 54.7188C22.4688 54.5312 22.5625 54.3125 22.5625 54.0625C22.5625 53.7708 22.4688 53.5208 22.2812 53.3125C22.0938 53.1042 21.8542 53 21.5625 53C21.2708 53 21.0312 53.1042 20.8438 53.3125C20.6562 53.5208 20.5625 53.7708 20.5625 54.0625C20.5625 54.3125 20.6562 54.5312 20.8438 54.7188C21.0312 54.9062 21.2708 55 21.5625 55ZM22.75 31V30.9375L23.375 18.5625H19.5625L17.3125 31.0625C17.3125 31.4375 17.3854 31.8021 17.5312 32.1562C17.6771 32.5104 17.8542 32.8125 18.0625 33.0625C18.3125 33.3125 18.6042 33.5104 18.9375 33.6562C19.2708 33.8021 19.625 33.875 20 33.875C20.375 33.875 20.7292 33.8021 21.0625 33.6562C21.3958 33.5104 21.6667 33.3125 21.875 33.0625C22.1667 32.8125 22.375 32.5 22.5 32.125C22.625 31.75 22.6875 31.375 22.6875 31H22.75ZM25.375 18.5625L24.75 31C24.75 31.375 24.8229 31.75 24.9688 32.125C25.1146 32.5 25.3125 32.8125 25.5625 33.0625C25.7708 33.3125 26.0417 33.5104 26.375 33.6562C26.7083 33.8021 27.0625 33.875 27.4375 33.875C27.8125 33.875 28.1667 33.8021 28.5 33.6562C28.8333 33.5104 29.125 33.3125 29.375 33.0625C29.625 32.8125 29.8125 32.5 29.9375 32.125C30.0625 31.75 30.125 31.375 30.125 31H30.1875L29.8125 24.75C29.8125 24.4583 29.9062 24.2083 30.0938 24C30.2812 23.7917 30.5 23.6875 30.75 23.6875C31.0417 23.6875 31.2917 23.7812 31.5 23.9688C31.7083 24.1562 31.8125 24.375 31.8125 24.625L32.125 30.9375V31H32.1875C32.1875 31.375 32.2604 31.75 32.4062 32.125C32.5521 32.5 32.75 32.8125 33 33.0625C33.2083 33.3125 33.4792 33.5104 33.8125 33.6562C34.1458 33.8021 34.5 33.875 34.875 33.875C35.1667 33.875 35.4062 33.9792 35.5938 34.1875C35.7812 34.3958 35.875 34.625 35.875 34.875C35.875 35.1667 35.7812 35.4062 35.5938 35.5938C35.4062 35.7812 35.1667 35.875 34.875 35.875C34.2083 35.875 33.5938 35.75 33.0312 35.5C32.4688 35.25 31.9583 34.8958 31.5 34.4375C31.4583 34.3542 31.4062 34.2812 31.3438 34.2188C31.2812 34.1562 31.2292 34.0833 31.1875 34C31.1042 34.0833 31.0312 34.1562 30.9688 34.2188C30.9062 34.2812 30.8542 34.3542 30.8125 34.4375C30.3542 34.8958 29.8438 35.25 29.2812 35.5C28.7188 35.75 28.1042 35.875 27.4375 35.875C26.7708 35.875 26.1562 35.75 25.5938 35.5C25.0312 35.25 24.5208 34.8958 24.0625 34.4375C24.0208 34.3542 23.9688 34.2812 23.9062 34.2188C23.8438 34.1562 23.7917 34.0833 23.75 34C23.6667 34.0833 23.5938 34.1562 23.5312 34.2188C23.4688 34.2812 23.4167 34.3542 23.375 34.4375C22.9167 34.8958 22.4062 35.25 21.8438 35.5C21.2812 35.75 20.6667 35.875 20 35.875C19.3333 35.875 18.7188 35.75 18.1562 35.5C17.5938 35.25 17.0833 34.8958 16.625 34.4375C16.5833 34.3542 16.5312 34.2812 16.4688 34.2188C16.4062 34.1562 16.3333 34.0833 16.25 34C16.2083 34.0833 16.1562 34.1562 16.0938 34.2188C16.0312 34.2812 15.9792 34.3542 15.9375 34.4375C15.4792 34.8958 14.9688 35.25 14.4062 35.5C13.8438 35.75 13.2292 35.875 12.5625 35.875C11.8958 35.875 11.2812 35.75 10.7188 35.5C10.1562 35.25 9.64583 34.8958 9.1875 34.4375C9.14583 34.3542 9.09375 34.2812 9.03125 34.2188C8.96875 34.1562 8.89583 34.0833 8.8125 34C8.77083 34.0833 8.71875 34.1562 8.65625 34.2188C8.59375 34.2812 8.54167 34.3542 8.5 34.4375C8.04167 34.8958 7.53125 35.25 6.96875 35.5C6.40625 35.75 5.79167 35.875 5.125 35.875C4.58333 35.875 4.0625 35.7812 3.5625 35.5938C3.0625 35.4062 2.60417 35.1458 2.1875 34.8125C1.77083 34.4792 1.41667 34.0833 1.125 33.625C0.833333 33.1667 0.645833 32.6667 0.5625 32.125C0.520833 31.9583 0.489583 31.7812 0.46875 31.5938C0.447917 31.4062 0.4375 31.2292 0.4375 31.0625C0.479167 30.8958 0.520833 30.7292 0.5625 30.5625C0.604167 30.3958 0.645833 30.2292 0.6875 30.0625L4.8125 19.9375C5.0625 19.4375 5.35417 18.9792 5.6875 18.5625C6.02083 18.1458 6.39583 17.7917 6.8125 17.5C7.22917 17.1667 7.69792 16.9271 8.21875 16.7812C8.73958 16.6354 9.27083 16.5625 9.8125 16.5625H28.0625C28.3542 16.5625 28.5938 16.6562 28.7812 16.8438C28.9688 17.0312 29.0625 17.2708 29.0625 17.5625C29.0625 17.8125 28.9688 18.0417 28.7812 18.25C28.5938 18.4583 28.3542 18.5625 28.0625 18.5625H25.375ZM17.5625 18.5625H13.5L9.875 31.0625C9.875 31.4792 9.94792 31.8542 10.0938 32.1875C10.2396 32.5208 10.4167 32.8125 10.625 33.0625C10.875 33.3125 11.1667 33.5104 11.5 33.6562C11.8333 33.8021 12.1875 33.875 12.5625 33.875C12.9375 33.875 13.2917 33.8021 13.625 33.6562C13.9583 33.5104 14.2292 33.3125 14.4375 33.0625C14.7292 32.8125 14.9375 32.5 15.0625 32.125C15.1875 31.75 15.25 31.375 15.25 31H15.3125C15.3125 30.9583 15.3125 30.9167 15.3125 30.875C15.3125 30.8333 15.3125 30.8125 15.3125 30.8125L17.5625 18.5625ZM11.4375 18.5625H9.8125C9.47917 18.5625 9.14583 18.6042 8.8125 18.6875C8.47917 18.7708 8.1875 18.9167 7.9375 19.125C7.6875 19.2917 7.44792 19.5104 7.21875 19.7812C6.98958 20.0521 6.8125 20.375 6.6875 20.75L2.5625 30.8125C2.52083 30.8958 2.48958 30.9688 2.46875 31.0312C2.44792 31.0938 2.4375 31.1667 2.4375 31.25C2.4375 31.2917 2.4375 31.3542 2.4375 31.4375C2.4375 31.5208 2.45833 31.6042 2.5 31.6875C2.54167 32.0208 2.64583 32.3229 2.8125 32.5938C2.97917 32.8646 3.1875 33.1042 3.4375 33.3125C3.6875 33.4792 3.94792 33.6146 4.21875 33.7188C4.48958 33.8229 4.79167 33.875 5.125 33.875C5.5 33.875 5.85417 33.8021 6.1875 33.6562C6.52083 33.5104 6.79167 33.3125 7 33.0625C7.29167 32.8125 7.5 32.5 7.625 32.125C7.75 31.75 7.8125 31.375 7.8125 31H7.875C7.875 30.9167 7.875 30.8542 7.875 30.8125C7.875 30.7708 7.875 30.7292 7.875 30.6875L11.4375 18.5625ZM30.75 57.8125C30.4583 57.8125 30.2188 57.7083 30.0312 57.5C29.8438 57.2917 29.75 57.0625 29.75 56.8125C29.75 56.5208 29.8438 56.2812 30.0312 56.0938C30.2188 55.9062 30.4583 55.8125 30.75 55.8125H44.9375C45.1875 55.8125 45.4062 55.9062 45.5938 56.0938C45.7812 56.2812 45.875 56.5208 45.875 56.8125C45.875 57.0625 45.7812 57.2917 45.5938 57.5C45.4062 57.7083 45.1875 57.8125 44.9375 57.8125H30.75ZM62.4375 23.375L49.5625 45.125C49.4375 45.375 49.2396 45.5312 48.9688 45.5938C48.6979 45.6562 48.4375 45.625 48.1875 45.5C48.1042 45.4583 48.0312 45.4062 47.9688 45.3438C47.9062 45.2812 47.8542 45.2083 47.8125 45.125L35 23.375C35 23.375 34.9896 23.3646 34.9688 23.3438C34.9479 23.3229 34.9375 23.3125 34.9375 23.3125C34.6458 22.7292 34.375 22.1354 34.125 21.5312C33.875 20.9271 33.6667 20.3125 33.5 19.6875C33.3333 19.0208 33.2083 18.3646 33.125 17.7188C33.0417 17.0729 33 16.3958 33 15.6875C33 13.5208 33.4167 11.4896 34.25 9.59375C35.0833 7.69792 36.2083 6.04167 37.625 4.625C39.0417 3.20833 40.6979 2.08333 42.5938 1.25C44.4896 0.416668 46.5417 0 48.75 0C50.9167 0 52.9479 0.416668 54.8438 1.25C56.7396 2.08333 58.3958 3.20833 59.8125 4.625C61.2292 6.04167 62.3542 7.69792 63.1875 9.59375C64.0208 11.4896 64.4375 13.5208 64.4375 15.6875C64.4375 16.3958 64.3958 17.0729 64.3125 17.7188C64.2292 18.3646 64.1042 19.0208 63.9375 19.6875C63.7708 20.3125 63.5625 20.9375 63.3125 21.5625C63.0625 22.1875 62.7708 22.7917 62.4375 23.375ZM48.75 6.1875C50.0417 6.1875 51.2708 6.4375 52.4375 6.9375C53.6042 7.4375 54.6042 8.125 55.4375 9C56.3125 9.83333 57 10.8333 57.5 12C58 13.1667 58.25 14.3958 58.25 15.6875C58.25 17.0208 58 18.2708 57.5 19.4375C57 20.6042 56.3125 21.6042 55.4375 22.4375C54.6042 23.3125 53.6042 24 52.4375 24.5C51.2708 25 50.0417 25.25 48.75 25.25C47.4167 25.25 46.1667 25 45 24.5C43.8333 24 42.8125 23.3125 41.9375 22.4375C41.1042 21.6042 40.4375 20.6042 39.9375 19.4375C39.4375 18.2708 39.1875 17.0208 39.1875 15.6875C39.1875 14.3958 39.4375 13.1667 39.9375 12C40.4375 10.8333 41.1042 9.83333 41.9375 9C42.8125 8.125 43.8333 7.4375 45 6.9375C46.1667 6.4375 47.4167 6.1875 48.75 6.1875ZM54.0625 10.375C53.3542 9.70833 52.5521 9.17708 51.6562 8.78125C50.7604 8.38542 49.7917 8.1875 48.75 8.1875C47.7083 8.1875 46.7292 8.38542 45.8125 8.78125C44.8958 9.17708 44.0833 9.70833 43.375 10.375C42.7083 11.0833 42.1771 11.8854 41.7812 12.7812C41.3854 13.6771 41.1875 14.6458 41.1875 15.6875C41.1875 16.7292 41.3854 17.7083 41.7812 18.625C42.1771 19.5417 42.7083 20.3542 43.375 21.0625C44.0833 21.7292 44.8958 22.2604 45.8125 22.6562C46.7292 23.0521 47.7083 23.25 48.75 23.25C49.7917 23.25 50.7604 23.0521 51.6562 22.6562C52.5521 22.2604 53.3542 21.7292 54.0625 21.0625C54.7292 20.3542 55.2604 19.5417 55.6562 18.625C56.0521 17.7083 56.25 16.7292 56.25 15.6875C56.25 14.6458 56.0521 13.6771 55.6562 12.7812C55.2604 11.8854 54.7292 11.0833 54.0625 10.375ZM48.75 42.6875L60.75 22.375C61 21.875 61.2292 21.3542 61.4375 20.8125C61.6458 20.2708 61.8333 19.7292 62 19.1875C62.125 18.6042 62.2292 18.0312 62.3125 17.4688C62.3958 16.9062 62.4375 16.3125 62.4375 15.6875C62.4375 13.8125 62.0729 12.0417 61.3438 10.375C60.6146 8.70833 59.6458 7.25 58.4375 6C57.1875 4.79167 55.7292 3.82292 54.0625 3.09375C52.3958 2.36458 50.625 2 48.75 2C46.8333 2 45.0417 2.36458 43.375 3.09375C41.7083 3.82292 40.25 4.79167 39 6C37.75 7.25 36.7708 8.70833 36.0625 10.375C35.3542 12.0417 35 13.8125 35 15.6875C35 16.3125 35.0312 16.9062 35.0938 17.4688C35.1562 18.0312 35.2708 18.6042 35.4375 19.1875C35.5625 19.7292 35.7396 20.2604 35.9688 20.7812C36.1979 21.3021 36.4375 21.8125 36.6875 22.3125V22.375L48.75 42.6875ZM48.75 11.125C49.3333 11.125 49.9062 11.25 50.4688 11.5C51.0312 11.75 51.5208 12.0833 51.9375 12.5C52.3542 12.9167 52.6875 13.3958 52.9375 13.9375C53.1875 14.4792 53.3125 15.0625 53.3125 15.6875C53.3125 16.3542 53.1875 16.9583 52.9375 17.5C52.6875 18.0417 52.3542 18.5208 51.9375 18.9375C51.5208 19.3542 51.0417 19.6875 50.5 19.9375C49.9583 20.1875 49.375 20.3125 48.75 20.3125C48.0833 20.3125 47.4792 20.1875 46.9375 19.9375C46.3958 19.6875 45.9167 19.3542 45.5 18.9375C45.4583 18.9375 45.4375 18.9271 45.4375 18.9062C45.4375 18.8854 45.4375 18.875 45.4375 18.875C45.0208 18.4583 44.6979 17.9792 44.4688 17.4375C44.2396 16.8958 44.125 16.3125 44.125 15.6875C44.125 15.0625 44.25 14.4792 44.5 13.9375C44.75 13.3958 45.0833 12.9167 45.5 12.5C45.5 12.5 45.5 12.4896 45.5 12.4688C45.5 12.4479 45.5208 12.4375 45.5625 12.4375C45.9792 12.0208 46.4583 11.6979 47 11.4688C47.5417 11.2396 48.125 11.125 48.75 11.125ZM50.5625 13.875C50.3125 13.6667 50.0312 13.4896 49.7188 13.3438C49.4062 13.1979 49.0833 13.125 48.75 13.125C48.375 13.125 48.0417 13.1875 47.75 13.3125C47.4583 13.4375 47.1875 13.625 46.9375 13.875C46.9375 13.875 46.9271 13.875 46.9062 13.875C46.8854 13.875 46.875 13.875 46.875 13.875C46.6667 14.125 46.4896 14.4062 46.3438 14.7188C46.1979 15.0312 46.125 15.3542 46.125 15.6875C46.125 16.0625 46.1875 16.3958 46.3125 16.6875C46.4375 16.9792 46.625 17.25 46.875 17.5C46.875 17.5 46.875 17.5104 46.875 17.5312C46.875 17.5521 46.875 17.5625 46.875 17.5625C47.125 17.7708 47.4062 17.9479 47.7188 18.0938C48.0312 18.2396 48.375 18.3125 48.75 18.3125C49.0833 18.3125 49.4062 18.2396 49.7188 18.0938C50.0312 17.9479 50.3125 17.7708 50.5625 17.5625C50.7708 17.3125 50.9479 17.0312 51.0938 16.7188C51.2396 16.4062 51.3125 16.0625 51.3125 15.6875C51.3125 15.3542 51.2396 15.0312 51.0938 14.7188C50.9479 14.4062 50.7708 14.125 50.5625 13.875Z" fill="#0568EA"/>
</g>
<defs>
<clipPath id="clip0_3194_3231">
<rect width="64" height="64" fill="white" transform="matrix(1 0 0 -1 0.4375 64)"/>
</clipPath>
</defs>
</svg>
