<svg width="25" height="25" viewBox="0 0 25 25" fill="none" xmlns="http://www.w3.org/2000/svg">
<path d="M16.8516 3.91699C14.9156 3.91699 13.2206 4.74949 12.1641 6.15668C11.1075 4.74949 9.4125 3.91699 7.47656 3.91699C5.93552 3.91873 4.4581 4.53167 3.36842 5.62135C2.27874 6.71103 1.6658 8.18845 1.66406 9.72949C1.66406 16.292 11.3944 21.6039 11.8088 21.8232C11.918 21.882 12.04 21.9127 12.1641 21.9127C12.2881 21.9127 12.4102 21.882 12.5194 21.8232C12.9337 21.6039 22.6641 16.292 22.6641 9.72949C22.6623 8.18845 22.0494 6.71103 20.9597 5.62135C19.87 4.53167 18.3926 3.91873 16.8516 3.91699ZM12.1641 20.3045C10.4522 19.307 3.16406 14.7629 3.16406 9.72949C3.16555 8.5862 3.62038 7.49017 4.42881 6.68174C5.23724 5.87331 6.33327 5.41848 7.47656 5.41699C9.3 5.41699 10.8309 6.38824 11.4703 7.94824C11.5268 8.0858 11.6229 8.20345 11.7465 8.28626C11.87 8.36906 12.0154 8.41327 12.1641 8.41327C12.3128 8.41327 12.4581 8.36906 12.5817 8.28626C12.7052 8.20345 12.8013 8.0858 12.8578 7.94824C13.4972 6.38543 15.0281 5.41699 16.8516 5.41699C17.9949 5.41848 19.0909 5.87331 19.8993 6.68174C20.7077 7.49017 21.1626 8.5862 21.1641 9.72949C21.1641 14.7554 13.8741 19.3061 12.1641 20.3045Z" fill="#2B2B29"/>
</svg>
